<svg xmlns="http://www.w3.org/2000/svg" xmlns:xlink="http://www.w3.org/1999/xlink" width="500" zoomAndPan="magnify" viewBox="0 0 375 374.999991" height="500" preserveAspectRatio="xMidYMid meet" version="1.0"><defs><clipPath id="93931709fe"><path d="M 5.898438 6 L 368.898438 6 L 368.898438 368.898438 L 5.898438 368.898438 Z M 5.898438 6 " clip-rule="nonzero"/></clipPath></defs><g clip-path="url(#93931709fe)"><path fill="#fee5bb" d="M 30.378906 137.589844 C 30.378906 138.421875 30.296875 139.246094 30.136719 140.0625 C 29.972656 140.878906 29.734375 141.667969 29.414062 142.4375 C 29.097656 143.207031 28.707031 143.933594 28.246094 144.625 C 27.785156 145.316406 27.257812 145.957031 26.671875 146.546875 C 26.082031 147.132812 25.441406 147.65625 24.75 148.121094 C 24.058594 148.582031 23.332031 148.972656 22.5625 149.289062 C 21.792969 149.609375 21.003906 149.847656 20.1875 150.011719 C 19.371094 150.171875 18.546875 150.253906 17.714844 150.253906 C 16.886719 150.253906 16.0625 150.171875 15.246094 150.011719 C 14.429688 149.847656 13.640625 149.609375 12.871094 149.289062 C 12.101562 148.972656 11.371094 148.582031 10.683594 148.121094 C 9.992188 147.65625 9.351562 147.132812 8.761719 146.546875 C 8.175781 145.957031 7.648438 145.316406 7.1875 144.625 C 6.726562 143.933594 6.335938 143.207031 6.019531 142.4375 C 5.699219 141.667969 5.460938 140.878906 5.296875 140.0625 C 5.136719 139.246094 5.054688 138.421875 5.054688 137.589844 C 5.054688 135.449219 5.113281 133.3125 5.21875 131.171875 C 5.324219 129.035156 5.484375 126.902344 5.699219 124.769531 C 5.910156 122.640625 6.175781 120.515625 6.488281 118.398438 C 6.804688 116.28125 7.175781 114.171875 7.59375 112.074219 C 8.011719 109.976562 8.484375 107.886719 9.003906 105.8125 C 9.527344 103.734375 10.097656 101.671875 10.722656 99.625 C 11.34375 97.578125 12.019531 95.546875 12.742188 93.53125 C 13.464844 91.515625 14.234375 89.519531 15.054688 87.542969 C 15.875 85.5625 16.742188 83.609375 17.660156 81.671875 C 18.574219 79.738281 19.539062 77.828125 20.550781 75.941406 C 21.558594 74.050781 22.613281 72.191406 23.714844 70.355469 C 24.816406 68.519531 25.960938 66.710938 27.152344 64.929688 C 28.34375 63.152344 29.574219 61.402344 30.851562 59.683594 C 32.125 57.964844 33.445312 56.277344 34.800781 54.621094 C 36.160156 52.96875 37.558594 51.347656 38.996094 49.761719 C 40.433594 48.175781 41.910156 46.625 43.421875 45.113281 C 44.9375 43.597656 46.488281 42.121094 48.074219 40.683594 C 49.660156 39.246094 51.28125 37.847656 52.933594 36.488281 C 54.589844 35.132812 56.277344 33.816406 57.996094 32.539062 C 59.714844 31.261719 61.464844 30.03125 63.242188 28.839844 C 65.023438 27.652344 66.832031 26.503906 68.667969 25.40625 C 70.5 24.304688 72.363281 23.246094 74.25 22.238281 C 76.136719 21.226562 78.050781 20.265625 79.984375 19.347656 C 81.917969 18.433594 83.875 17.5625 85.851562 16.742188 C 87.828125 15.921875 89.828125 15.152344 91.839844 14.429688 C 93.855469 13.707031 95.886719 13.035156 97.9375 12.410156 C 99.984375 11.789062 102.046875 11.214844 104.121094 10.695312 C 106.199219 10.171875 108.285156 9.699219 110.386719 9.28125 C 112.484375 8.863281 114.59375 8.496094 116.710938 8.179688 C 118.828125 7.863281 120.953125 7.597656 123.082031 7.386719 C 125.210938 7.175781 127.347656 7.015625 129.484375 6.90625 C 131.621094 6.800781 133.761719 6.746094 135.902344 6.742188 C 137.023438 6.738281 138.125 6.882812 139.210938 7.175781 C 140.292969 7.464844 141.320312 7.890625 142.289062 8.457031 C 143.257812 9.019531 144.136719 9.699219 144.925781 10.5 C 145.714844 11.296875 146.386719 12.183594 146.9375 13.160156 C 147.488281 14.136719 147.90625 15.167969 148.183594 16.253906 C 148.460938 17.339844 148.59375 18.441406 148.578125 19.566406 C 148.5625 20.6875 148.398438 21.785156 148.089844 22.863281 C 147.78125 23.941406 147.339844 24.960938 146.757812 25.921875 L 129.03125 55.46875 C 128.597656 56.171875 128.101562 56.828125 127.542969 57.433594 C 126.980469 58.042969 126.367188 58.589844 125.699219 59.074219 C 125.03125 59.5625 124.324219 59.980469 123.574219 60.328125 C 122.824219 60.675781 122.050781 60.949219 121.246094 61.144531 C 120.445312 61.339844 119.628906 61.457031 118.804688 61.496094 C 117.980469 61.53125 117.160156 61.488281 116.34375 61.363281 C 115.523438 61.238281 114.726562 61.039062 113.949219 60.757812 C 113.171875 60.480469 112.429688 60.125 111.722656 59.699219 C 111.015625 59.277344 110.351562 58.785156 109.742188 58.230469 C 109.128906 57.675781 108.574219 57.066406 108.082031 56.40625 C 107.589844 55.742188 107.164062 55.039062 106.808594 54.292969 C 106.453125 53.546875 106.171875 52.773438 105.96875 51.972656 C 105.765625 51.171875 105.640625 50.359375 105.59375 49.535156 C 105.550781 48.710938 105.585938 47.886719 105.703125 47.070312 C 105.816406 46.253906 106.011719 45.453125 106.285156 44.671875 C 106.554688 43.894531 106.902344 43.148438 107.320312 42.433594 L 111.894531 34.820312 C 109.023438 35.496094 106.183594 36.289062 103.378906 37.203125 C 100.574219 38.113281 97.8125 39.144531 95.09375 40.285156 C 92.375 41.429688 89.707031 42.6875 87.09375 44.054688 C 84.480469 45.421875 81.929688 46.894531 79.4375 48.476562 C 76.949219 50.054688 74.527344 51.738281 72.179688 53.519531 C 69.828125 55.304688 67.558594 57.183594 65.367188 59.15625 C 63.171875 61.128906 61.066406 63.191406 59.046875 65.339844 C 57.027344 67.492188 55.101562 69.722656 53.269531 72.03125 C 51.433594 74.34375 49.703125 76.726562 48.070312 79.183594 C 46.433594 81.640625 44.90625 84.160156 43.484375 86.742188 C 42.0625 89.328125 40.75 91.96875 39.546875 94.660156 C 38.347656 97.355469 37.257812 100.09375 36.289062 102.878906 C 35.316406 105.664062 34.460938 108.484375 33.722656 111.339844 C 32.988281 114.199219 32.371094 117.078125 31.878906 119.988281 C 31.382812 122.894531 31.011719 125.820312 30.761719 128.757812 C 30.511719 131.695312 30.382812 134.640625 30.378906 137.589844 Z M 355.390625 226.230469 C 354.558594 226.230469 353.734375 226.3125 352.921875 226.472656 C 352.105469 226.636719 351.3125 226.875 350.546875 227.195312 C 349.777344 227.511719 349.046875 227.902344 348.355469 228.363281 C 347.664062 228.828125 347.023438 229.351562 346.4375 229.941406 C 345.847656 230.527344 345.324219 231.167969 344.863281 231.859375 C 344.402344 232.550781 344.011719 233.28125 343.691406 234.046875 C 343.375 234.816406 343.132812 235.609375 342.972656 236.421875 C 342.808594 237.238281 342.726562 238.0625 342.726562 238.894531 C 342.726562 241.84375 342.597656 244.789062 342.347656 247.726562 C 342.097656 250.664062 341.726562 253.589844 341.230469 256.496094 C 340.734375 259.40625 340.121094 262.289062 339.382812 265.144531 C 338.648438 268 337.792969 270.820312 336.820312 273.605469 C 335.847656 276.390625 334.761719 279.128906 333.558594 281.824219 C 332.359375 284.519531 331.046875 287.15625 329.625 289.742188 C 328.199219 292.324219 326.671875 294.84375 325.039062 297.300781 C 323.40625 299.757812 321.671875 302.140625 319.839844 304.453125 C 318.007812 306.761719 316.082031 308.992188 314.0625 311.144531 C 312.039062 313.292969 309.933594 315.355469 307.742188 317.328125 C 305.550781 319.300781 303.277344 321.179688 300.929688 322.964844 C 298.578125 324.746094 296.160156 326.429688 293.667969 328.007812 C 291.179688 329.589844 288.628906 331.0625 286.011719 332.429688 C 283.398438 333.796875 280.734375 335.054688 278.015625 336.199219 C 275.296875 337.34375 272.535156 338.371094 269.726562 339.28125 C 266.921875 340.195312 264.085938 340.988281 261.214844 341.664062 L 265.789062 334.050781 C 266.226562 333.335938 266.589844 332.589844 266.878906 331.804688 C 267.167969 331.019531 267.378906 330.210938 267.507812 329.386719 C 267.636719 328.558594 267.683594 327.726562 267.648438 326.890625 C 267.613281 326.054688 267.496094 325.230469 267.296875 324.417969 C 267.097656 323.605469 266.820312 322.820312 266.46875 322.0625 C 266.113281 321.304688 265.6875 320.589844 265.191406 319.914062 C 264.695312 319.242188 264.136719 318.625 263.519531 318.058594 C 262.898438 317.496094 262.230469 317 261.515625 316.570312 C 260.796875 316.140625 260.042969 315.78125 259.257812 315.5 C 258.46875 315.21875 257.660156 315.019531 256.832031 314.898438 C 256.003906 314.777344 255.171875 314.738281 254.339844 314.78125 C 253.503906 314.824219 252.679688 314.949219 251.867188 315.15625 C 251.058594 315.363281 250.273438 315.648438 249.519531 316.007812 C 248.765625 316.371094 248.054688 316.804688 247.386719 317.304688 C 246.71875 317.808594 246.105469 318.371094 245.546875 318.996094 C 244.992188 319.621094 244.5 320.292969 244.078125 321.015625 L 226.347656 350.5625 C 225.769531 351.523438 225.324219 352.542969 225.015625 353.621094 C 224.707031 354.699219 224.546875 355.796875 224.53125 356.917969 C 224.515625 358.042969 224.648438 359.144531 224.925781 360.230469 C 225.203125 361.320312 225.617188 362.351562 226.171875 363.324219 C 226.722656 364.300781 227.394531 365.1875 228.183594 365.984375 C 228.96875 366.785156 229.847656 367.464844 230.820312 368.027344 C 231.789062 368.59375 232.816406 369.019531 233.898438 369.308594 C 234.980469 369.601562 236.082031 369.746094 237.207031 369.742188 C 239.347656 369.738281 241.484375 369.683594 243.625 369.578125 C 245.761719 369.46875 247.894531 369.308594 250.027344 369.097656 C 252.15625 368.886719 254.28125 368.621094 256.398438 368.304688 C 258.515625 367.992188 260.621094 367.621094 262.722656 367.203125 C 264.820312 366.785156 266.910156 366.3125 268.984375 365.792969 C 271.0625 365.269531 273.125 364.695312 275.171875 364.074219 C 277.21875 363.449219 279.25 362.777344 281.265625 362.054688 C 283.28125 361.332031 285.277344 360.5625 287.253906 359.742188 C 289.234375 358.921875 291.1875 358.054688 293.125 357.136719 C 295.058594 356.21875 296.96875 355.257812 298.855469 354.246094 C 300.746094 353.238281 302.605469 352.179688 304.441406 351.082031 C 306.277344 349.980469 308.085938 348.832031 309.863281 347.644531 C 311.644531 346.453125 313.394531 345.222656 315.113281 343.945312 C 316.832031 342.667969 318.519531 341.351562 320.175781 339.996094 C 321.828125 338.636719 323.449219 337.238281 325.035156 335.800781 C 326.621094 334.363281 328.171875 332.886719 329.683594 331.375 C 331.199219 329.859375 332.675781 328.308594 334.113281 326.722656 C 335.550781 325.136719 336.949219 323.515625 338.304688 321.863281 C 339.664062 320.207031 340.980469 318.519531 342.257812 316.800781 C 343.53125 315.082031 344.765625 313.332031 345.957031 311.554688 C 347.144531 309.773438 348.289062 307.964844 349.390625 306.128906 C 350.492188 304.292969 351.546875 302.433594 352.558594 300.546875 C 353.570312 298.65625 354.53125 296.746094 355.449219 294.8125 C 356.363281 292.878906 357.234375 290.921875 358.054688 288.945312 C 358.875 286.964844 359.644531 284.96875 360.367188 282.953125 C 361.089844 280.941406 361.761719 278.90625 362.386719 276.859375 C 363.007812 274.8125 363.582031 272.75 364.101562 270.671875 C 364.625 268.597656 365.09375 266.507812 365.515625 264.410156 C 365.933594 262.3125 366.300781 260.203125 366.617188 258.085938 C 366.933594 255.96875 367.199219 253.84375 367.410156 251.714844 C 367.621094 249.582031 367.78125 247.449219 367.890625 245.3125 C 367.996094 243.171875 368.050781 241.035156 368.054688 238.894531 C 368.054688 238.0625 367.972656 237.238281 367.8125 236.421875 C 367.648438 235.609375 367.410156 234.816406 367.089844 234.046875 C 366.773438 233.28125 366.382812 232.550781 365.917969 231.859375 C 365.457031 231.167969 364.933594 230.527344 364.34375 229.941406 C 363.757812 229.351562 363.117188 228.828125 362.425781 228.363281 C 361.734375 227.902344 361.003906 227.511719 360.238281 227.195312 C 359.46875 226.875 358.675781 226.636719 357.863281 226.472656 C 357.046875 226.3125 356.222656 226.230469 355.390625 226.230469 Z M 308.960938 132.355469 L 308.960938 178.449219 C 308.960938 223.53125 288.023438 244.632812 243.113281 244.804688 C 242.945312 289.714844 221.839844 310.648438 176.761719 310.648438 L 130.667969 310.648438 C 85.25 310.648438 64.148438 289.542969 64.148438 244.128906 L 64.148438 198.035156 C 64.148438 152.957031 85.082031 131.851562 129.992188 131.683594 C 130.164062 86.769531 151.265625 65.835938 196.347656 65.835938 L 242.4375 65.835938 C 287.855469 65.835938 308.960938 86.941406 308.960938 132.355469 Z M 217.789062 198.035156 C 217.789062 166.632812 208.164062 157.007812 176.761719 157.007812 L 130.667969 157.007812 C 99.097656 157.007812 89.472656 166.632812 89.472656 198.035156 L 89.472656 244.128906 C 89.472656 275.699219 99.097656 285.324219 130.667969 285.324219 L 176.761719 285.324219 C 208.164062 285.324219 217.789062 275.699219 217.789062 244.128906 Z M 217.789062 198.035156 " fill-opacity="1" fill-rule="nonzero"/><path fill="#fea20d" d="M 146.878906 13.15625 C 146.324219 12.1875 145.65625 11.308594 144.871094 10.511719 C 144.089844 9.71875 143.214844 9.042969 142.25 8.476562 C 141.289062 7.914062 140.269531 7.484375 139.191406 7.191406 C 138.113281 6.898438 137.019531 6.746094 135.902344 6.742188 C 133.761719 6.746094 131.625 6.800781 129.484375 6.910156 C 127.347656 7.019531 125.214844 7.179688 123.085938 7.390625 C 120.953125 7.605469 118.832031 7.871094 116.714844 8.1875 C 114.597656 8.503906 112.488281 8.871094 110.390625 9.292969 C 108.292969 9.714844 106.203125 10.183594 104.128906 10.707031 C 102.054688 11.230469 99.992188 11.800781 97.945312 12.425781 C 95.894531 13.050781 93.863281 13.722656 91.851562 14.445312 C 89.835938 15.167969 87.839844 15.941406 85.863281 16.761719 C 83.886719 17.582031 81.929688 18.449219 79.996094 19.367188 C 78.0625 20.285156 76.152344 21.246094 74.265625 22.257812 C 72.378906 23.265625 70.515625 24.324219 68.679688 25.425781 C 66.84375 26.527344 65.039062 27.671875 63.257812 28.863281 C 61.480469 30.050781 59.730469 31.285156 58.011719 32.558594 C 56.292969 33.835938 54.605469 35.152344 52.953125 36.511719 C 51.296875 37.867188 49.675781 39.265625 48.09375 40.703125 C 46.507812 42.140625 44.957031 43.617188 43.441406 45.132812 C 41.929688 46.644531 40.453125 48.195312 39.015625 49.78125 C 37.578125 51.367188 36.179688 52.984375 34.824219 54.640625 C 33.464844 56.292969 32.148438 57.980469 30.871094 59.699219 C 29.597656 61.417969 28.363281 63.167969 27.171875 64.949219 C 25.984375 66.726562 24.835938 68.535156 23.738281 70.371094 C 22.636719 72.203125 21.578125 74.066406 20.570312 75.953125 C 19.558594 77.839844 18.59375 79.75 17.679688 81.683594 C 16.761719 83.621094 15.894531 85.574219 15.074219 87.550781 C 14.253906 89.527344 13.480469 91.523438 12.757812 93.539062 C 12.035156 95.554688 11.359375 97.585938 10.738281 99.632812 C 10.113281 101.679688 9.539062 103.742188 9.019531 105.816406 C 8.496094 107.894531 8.023438 109.980469 7.605469 112.078125 C 7.183594 114.179688 6.816406 116.285156 6.5 118.402344 C 6.183594 120.519531 5.917969 122.644531 5.703125 124.773438 C 5.492188 126.902344 5.332031 129.035156 5.222656 131.175781 C 5.113281 133.3125 5.058594 135.449219 5.054688 137.589844 C 5.054688 138.421875 5.136719 139.246094 5.296875 140.0625 C 5.460938 140.878906 5.699219 141.667969 6.019531 142.4375 C 6.335938 143.207031 6.726562 143.933594 7.1875 144.625 C 7.648438 145.316406 8.175781 145.957031 8.761719 146.546875 C 9.351562 147.132812 9.992188 147.65625 10.683594 148.121094 C 11.371094 148.582031 12.101562 148.972656 12.871094 149.289062 C 13.640625 149.609375 14.429688 149.847656 15.246094 150.011719 C 16.0625 150.171875 16.886719 150.253906 17.714844 150.253906 C 18.546875 150.253906 19.371094 150.171875 20.1875 150.011719 C 21.003906 149.847656 21.792969 149.609375 22.5625 149.289062 C 23.332031 148.972656 24.058594 148.582031 24.75 148.121094 C 25.441406 147.65625 26.082031 147.132812 26.671875 146.546875 C 27.257812 145.957031 27.785156 145.316406 28.246094 144.625 C 28.707031 143.933594 29.097656 143.207031 29.414062 142.4375 C 29.734375 141.667969 29.972656 140.878906 30.136719 140.0625 C 30.296875 139.246094 30.378906 138.421875 30.378906 137.589844 C 30.382812 134.640625 30.507812 131.695312 30.757812 128.753906 C 31.007812 125.8125 31.378906 122.886719 31.871094 119.976562 C 32.367188 117.066406 32.980469 114.183594 33.71875 111.324219 C 34.453125 108.46875 35.308594 105.644531 36.28125 102.859375 C 37.25 100.070312 38.339844 97.332031 39.539062 94.636719 C 40.742188 91.9375 42.054688 89.296875 43.476562 86.714844 C 44.902344 84.128906 46.429688 81.605469 48.0625 79.148438 C 49.699219 76.691406 51.433594 74.304688 53.265625 71.992188 C 55.101562 69.679688 57.027344 67.449219 59.046875 65.296875 C 61.070312 63.148438 63.175781 61.085938 65.371094 59.109375 C 67.5625 57.136719 69.835938 55.257812 72.1875 53.472656 C 74.539062 51.6875 76.960938 50.003906 79.453125 48.425781 C 81.945312 46.84375 84.496094 45.367188 87.113281 44 C 89.726562 42.632812 92.394531 41.378906 95.117188 40.234375 C 97.835938 39.089844 100.601562 38.0625 103.40625 37.148438 C 106.214844 36.238281 109.054688 35.445312 111.929688 34.769531 L 107.371094 42.367188 C 106.9375 43.078125 106.578125 43.820312 106.292969 44.601562 C 106.007812 45.382812 105.804688 46.183594 105.675781 47.003906 C 105.546875 47.824219 105.5 48.648438 105.535156 49.476562 C 105.570312 50.308594 105.6875 51.125 105.882812 51.933594 C 106.078125 52.738281 106.351562 53.519531 106.703125 54.273438 C 107.050781 55.027344 107.472656 55.738281 107.960938 56.410156 C 108.453125 57.078125 109.003906 57.695312 109.613281 58.257812 C 110.226562 58.820312 110.886719 59.316406 111.59375 59.75 C 112.304688 60.183594 113.046875 60.539062 113.828125 60.828125 C 114.609375 61.113281 115.410156 61.320312 116.230469 61.445312 C 117.050781 61.574219 117.875 61.621094 118.703125 61.585938 C 119.535156 61.550781 120.351562 61.4375 121.160156 61.242188 C 121.96875 61.046875 122.746094 60.773438 123.5 60.425781 C 124.253906 60.074219 124.964844 59.65625 125.636719 59.167969 C 126.308594 58.675781 126.925781 58.125 127.488281 57.515625 C 128.050781 56.90625 128.546875 56.246094 128.980469 55.535156 L 146.707031 25.988281 C 147.300781 25.027344 147.753906 24.003906 148.070312 22.917969 C 148.386719 21.835938 148.550781 20.726562 148.566406 19.597656 C 148.582031 18.46875 148.445312 17.355469 148.160156 16.261719 C 147.871094 15.171875 147.445312 14.136719 146.878906 13.15625 Z M 355.390625 226.230469 C 354.5625 226.234375 353.738281 226.320312 352.925781 226.488281 C 352.113281 226.652344 351.324219 226.898438 350.558594 227.21875 C 349.792969 227.535156 349.066406 227.929688 348.375 228.390625 C 347.6875 228.851562 347.046875 229.378906 346.460938 229.964844 C 345.875 230.550781 345.351562 231.1875 344.886719 231.878906 C 344.425781 232.566406 344.035156 233.296875 343.714844 234.0625 C 343.394531 234.828125 343.152344 235.617188 342.984375 236.429688 C 342.820312 237.242188 342.734375 238.0625 342.726562 238.894531 C 342.726562 241.84375 342.601562 244.789062 342.351562 247.730469 C 342.101562 250.671875 341.730469 253.597656 341.234375 256.507812 C 340.742188 259.417969 340.125 262.300781 339.390625 265.160156 C 338.65625 268.015625 337.800781 270.839844 336.828125 273.625 C 335.855469 276.414062 334.769531 279.152344 333.566406 281.851562 C 332.367188 284.546875 331.054688 287.1875 329.628906 289.773438 C 328.207031 292.355469 326.679688 294.878906 325.042969 297.335938 C 323.410156 299.792969 321.675781 302.179688 319.84375 304.492188 C 318.007812 306.804688 316.082031 309.035156 314.058594 311.1875 C 312.039062 313.335938 309.933594 315.398438 307.738281 317.375 C 305.542969 319.347656 303.273438 321.226562 300.921875 323.011719 C 298.570312 324.796875 296.148438 326.480469 293.65625 328.058594 C 291.164062 329.640625 288.609375 331.117188 285.996094 332.484375 C 283.378906 333.851562 280.710938 335.105469 277.992188 336.25 C 275.269531 337.394531 272.507812 338.421875 269.699219 339.335938 C 266.894531 340.246094 264.054688 341.039062 261.179688 341.714844 L 265.738281 334.117188 C 266.171875 333.40625 266.53125 332.664062 266.816406 331.882812 C 267.101562 331.101562 267.308594 330.300781 267.4375 329.480469 C 267.5625 328.660156 267.609375 327.835938 267.574219 327.003906 C 267.542969 326.175781 267.425781 325.355469 267.230469 324.546875 C 267.035156 323.742188 266.761719 322.960938 266.410156 322.207031 C 266.0625 321.453125 265.640625 320.742188 265.152344 320.070312 C 264.660156 319.398438 264.109375 318.78125 263.5 318.21875 C 262.886719 317.65625 262.226562 317.160156 261.519531 316.726562 C 260.808594 316.296875 260.0625 315.9375 259.28125 315.652344 C 258.503906 315.363281 257.703125 315.15625 256.882812 315.03125 C 256.058594 314.902344 255.234375 314.855469 254.40625 314.890625 C 253.574219 314.925781 252.753906 315.039062 251.949219 315.234375 C 251.140625 315.433594 250.359375 315.707031 249.605469 316.054688 C 248.851562 316.40625 248.140625 316.824219 247.46875 317.3125 C 246.800781 317.804688 246.183594 318.355469 245.621094 318.96875 C 245.058594 319.578125 244.558594 320.238281 244.128906 320.949219 L 226.398438 350.496094 C 225.804688 351.457031 225.351562 352.480469 225.039062 353.566406 C 224.722656 354.648438 224.558594 355.757812 224.542969 356.886719 C 224.527344 358.015625 224.664062 359.128906 224.949219 360.222656 C 225.234375 361.3125 225.664062 362.347656 226.230469 363.328125 C 226.78125 364.296875 227.449219 365.179688 228.234375 365.972656 C 229.019531 366.765625 229.894531 367.445312 230.855469 368.007812 C 231.820312 368.570312 232.839844 369 233.917969 369.292969 C 234.992188 369.585938 236.089844 369.738281 237.207031 369.742188 C 239.34375 369.738281 241.484375 369.683594 243.621094 369.574219 C 245.761719 369.464844 247.894531 369.304688 250.023438 369.09375 C 252.152344 368.878906 254.277344 368.613281 256.394531 368.296875 C 258.511719 367.980469 260.617188 367.613281 262.71875 367.191406 C 264.816406 366.773438 266.902344 366.300781 268.980469 365.777344 C 271.054688 365.253906 273.117188 364.683594 275.164062 364.058594 C 277.210938 363.433594 279.242188 362.761719 281.257812 362.039062 C 283.273438 361.316406 285.269531 360.542969 287.246094 359.722656 C 289.222656 358.902344 291.175781 358.035156 293.113281 357.117188 C 295.046875 356.199219 296.957031 355.238281 298.84375 354.226562 C 300.730469 353.21875 302.59375 352.160156 304.425781 351.058594 C 306.261719 349.957031 308.070312 348.8125 309.847656 347.621094 C 311.628906 346.433594 313.378906 345.199219 315.097656 343.925781 C 316.816406 342.648438 318.5 341.332031 320.15625 339.972656 C 321.808594 338.617188 323.429688 337.21875 325.015625 335.78125 C 326.601562 334.34375 328.152344 332.867188 329.664062 331.351562 C 331.179688 329.839844 332.652344 328.289062 334.09375 326.703125 C 335.53125 325.117188 336.925781 323.5 338.285156 321.84375 C 339.644531 320.191406 340.960938 318.503906 342.238281 316.785156 C 343.511719 315.066406 344.746094 313.316406 345.933594 311.539062 C 347.125 309.757812 348.269531 307.949219 349.371094 306.117188 C 350.472656 304.28125 351.527344 302.417969 352.539062 300.53125 C 353.550781 298.644531 354.511719 296.734375 355.429688 294.800781 C 356.347656 292.867188 357.214844 290.910156 358.035156 288.933594 C 358.855469 286.957031 359.628906 284.960938 360.351562 282.945312 C 361.074219 280.929688 361.746094 278.898438 362.371094 276.851562 C 362.992188 274.804688 363.566406 272.742188 364.089844 270.667969 C 364.613281 268.589844 365.082031 266.503906 365.503906 264.40625 C 365.921875 262.308594 366.292969 260.199219 366.609375 258.082031 C 366.925781 255.964844 367.191406 253.84375 367.402344 251.710938 C 367.617188 249.582031 367.777344 247.449219 367.886719 245.3125 C 367.996094 243.171875 368.050781 241.035156 368.054688 238.894531 C 368.046875 238.0625 367.960938 237.242188 367.796875 236.429688 C 367.632812 235.617188 367.386719 234.828125 367.066406 234.0625 C 366.746094 233.296875 366.355469 232.566406 365.894531 231.878906 C 365.433594 231.1875 364.90625 230.550781 364.320312 229.964844 C 363.734375 229.378906 363.097656 228.851562 362.40625 228.390625 C 361.71875 227.929688 360.988281 227.535156 360.222656 227.21875 C 359.457031 226.898438 358.667969 226.652344 357.855469 226.488281 C 357.042969 226.320312 356.222656 226.234375 355.390625 226.230469 Z M 242.4375 65.835938 L 196.347656 65.835938 C 151.265625 65.835938 130.164062 86.769531 129.992188 131.683594 C 85.082031 131.851562 64.148438 152.957031 64.148438 198.035156 L 64.148438 244.128906 C 64.148438 289.542969 85.25 310.648438 130.667969 310.648438 L 176.761719 310.648438 C 221.839844 310.648438 242.945312 289.714844 243.113281 244.804688 C 288.023438 244.632812 308.960938 223.53125 308.960938 178.449219 L 308.960938 132.355469 C 308.960938 86.941406 287.855469 65.835938 242.4375 65.835938 Z M 217.789062 244.128906 C 217.789062 275.699219 208.164062 285.324219 176.761719 285.324219 L 130.667969 285.324219 C 99.097656 285.324219 89.472656 275.699219 89.472656 244.128906 L 89.472656 198.035156 C 89.472656 166.632812 99.097656 157.007812 130.667969 157.007812 L 176.761719 157.007812 C 208.164062 157.007812 217.789062 166.632812 217.789062 198.035156 Z M 283.636719 178.449219 C 283.636719 209.683594 274.179688 219.308594 243.113281 219.476562 L 243.113281 198.035156 C 243.113281 152.785156 222.011719 131.683594 176.761719 131.683594 L 155.320312 131.683594 C 155.488281 100.617188 165.113281 91.160156 196.347656 91.160156 L 242.4375 91.160156 C 274.011719 91.160156 283.636719 100.785156 283.636719 132.355469 Z M 283.636719 178.449219 " fill-opacity="1" fill-rule="nonzero"/></g></svg>